<?xml version="1.0" encoding="UTF-8"?>
<svg xmlns="http://www.w3.org/2000/svg" viewBox="0 0 24.81 24.81">
        <defs>
                <style>.d{fill:#231f20;}</style>
        </defs>
        <g id="a"/>
        <g id="b">
                <g id="c">
                        <path class="d" d="M23.31,10.1H14.71V1.5c0-.83-.67-1.5-1.5-1.5h-1.6c-.83,0-1.5,.67-1.5,1.5V10.1H1.5c-.83,0-1.5,.67-1.5,1.5v1.6c0,.83,.67,1.5,1.5,1.5H10.1v8.6c0,.83,.67,1.5,1.5,1.5h1.6c.83,0,1.5-.67,1.5-1.5V14.71h8.6c.83,0,1.5-.67,1.5-1.5v-1.6c0-.83-.67-1.5-1.5-1.5Z"/>
                </g>
        </g>
</svg>